<svg width="42" height="39" viewBox="0 0 42 39" fill="none" xmlns="http://www.w3.org/2000/svg">
<g clip-path="url(#clip0_1204_76)">
<path d="M9.22667 23.4442L7.7775 28.4854L2.4808 28.5898C0.897867 25.8539 0 22.7237 0 19.3974C0 16.1808 0.839484 13.1475 2.32753 10.4767H2.32866L7.04421 11.2823L9.10991 15.65C8.67756 16.8246 8.44191 18.0854 8.44191 19.3974C8.44208 20.8213 8.71887 22.1855 9.22667 23.4442Z" fill="#FBBB00"/>
<path d="M41.269 15.7737C41.5081 16.9471 41.6327 18.1589 41.6327 19.3974C41.6327 20.7862 41.4761 22.1408 41.1776 23.4475C40.1642 27.894 37.5164 31.7766 33.8484 34.5242L33.8473 34.5232L27.9078 34.2408L27.0672 29.3509C29.5011 28.0208 31.4031 25.9393 32.4051 23.4475H21.274V15.7737H32.5675H41.269Z" fill="#518EF8"/>
<path d="M33.8473 34.5231L33.8484 34.5242C30.2811 37.1961 25.7495 38.7948 20.8165 38.7948C12.8891 38.7948 5.99688 34.6659 2.48096 28.5898L9.22683 23.4442C10.9847 27.8161 15.5106 30.9282 20.8165 30.9282C23.0971 30.9282 25.2337 30.3537 27.0671 29.3508L33.8473 34.5231Z" fill="#28B446"/>
<path d="M34.1036 4.46565L27.36 9.61022C25.4625 8.50502 23.2195 7.86657 20.8166 7.86657C15.3906 7.86657 10.7801 11.1215 9.11022 15.6501L2.3289 10.4767H2.32776C5.79221 4.25251 12.7714 0 20.8166 0C25.8674 0 30.4984 1.67651 34.1036 4.46565Z" fill="#F14336"/>
</g>
<defs>
<clipPath id="clip0_1204_76">
<rect width="41.6327" height="38.7949" fill="white"/>
</clipPath>
</defs>
</svg>
